<mxfile host="Electron" modified="2024-05-10T13:05:04.062Z" agent="Mozilla/5.0 (Windows NT 10.0; Win64; x64) AppleWebKit/537.36 (KHTML, like Gecko) draw.io/24.2.5 Chrome/120.0.6099.109 Electron/28.1.0 Safari/537.36" etag="UIvSD-VReLDv01mjXeou" version="24.2.5" type="device">
  <diagram name="Page-1" id="TNenG-H2_jBo4O4a2cIZ">
    <mxGraphModel dx="1709" dy="991" grid="1" gridSize="10" guides="1" tooltips="1" connect="1" arrows="1" fold="1" page="1" pageScale="1" pageWidth="827" pageHeight="1169" math="0" shadow="0">
      <root>
        <mxCell id="0" />
        <mxCell id="1" parent="0" />
        <mxCell id="rAzi4bnjLAUo05s-4pT--1" value="" style="rounded=0;html=1;jettySize=auto;orthogonalLoop=1;fontSize=11;endArrow=block;endFill=0;endSize=8;strokeWidth=1;shadow=0;labelBackgroundColor=none;edgeStyle=orthogonalEdgeStyle;" edge="1" parent="1" source="rAzi4bnjLAUo05s-4pT--2" target="rAzi4bnjLAUo05s-4pT--4">
          <mxGeometry relative="1" as="geometry" />
        </mxCell>
        <mxCell id="rAzi4bnjLAUo05s-4pT--2" value="int num = 0" style="rounded=1;whiteSpace=wrap;html=1;fontSize=12;glass=0;strokeWidth=1;shadow=0;" vertex="1" parent="1">
          <mxGeometry x="285" y="420" width="120" height="40" as="geometry" />
        </mxCell>
        <mxCell id="rAzi4bnjLAUo05s-4pT--4" value="(int) s.charAt(i) &amp;gt;= 48" style="rhombus;whiteSpace=wrap;html=1;shadow=0;fontFamily=Helvetica;fontSize=12;align=center;strokeWidth=1;spacing=6;spacingTop=-4;" vertex="1" parent="1">
          <mxGeometry x="258.75" y="500" width="172.5" height="50" as="geometry" />
        </mxCell>
        <mxCell id="rAzi4bnjLAUo05s-4pT--9" value="(int) s.charAt(i) &amp;lt;= 57" style="rhombus;whiteSpace=wrap;html=1;shadow=0;fontFamily=Helvetica;fontSize=12;align=center;strokeWidth=1;spacing=6;spacingTop=-4;" vertex="1" parent="1">
          <mxGeometry x="413.75" y="590" width="172.5" height="50" as="geometry" />
        </mxCell>
        <mxCell id="rAzi4bnjLAUo05s-4pT--10" value="throw new NumberFormatException()" style="rounded=1;whiteSpace=wrap;html=1;fontSize=12;glass=0;strokeWidth=1;shadow=0;" vertex="1" parent="1">
          <mxGeometry x="150" y="630" width="240" height="40" as="geometry" />
        </mxCell>
        <mxCell id="rAzi4bnjLAUo05s-4pT--11" value="throw new NumberFormatException()" style="rounded=1;whiteSpace=wrap;html=1;fontSize=12;glass=0;strokeWidth=1;shadow=0;" vertex="1" parent="1">
          <mxGeometry x="210" y="730" width="240" height="40" as="geometry" />
        </mxCell>
        <mxCell id="rAzi4bnjLAUo05s-4pT--14" value="num = num * 10 + ((int) s.charAt(i) - 48)" style="rounded=1;whiteSpace=wrap;html=1;fontSize=12;glass=0;strokeWidth=1;shadow=0;" vertex="1" parent="1">
          <mxGeometry x="380" y="800" width="240" height="40" as="geometry" />
        </mxCell>
        <mxCell id="rAzi4bnjLAUo05s-4pT--20" style="edgeStyle=orthogonalEdgeStyle;rounded=0;orthogonalLoop=1;jettySize=auto;html=1;entryX=0;entryY=0;entryDx=0;entryDy=0;endArrow=block;endFill=0;" edge="1" parent="1" source="rAzi4bnjLAUo05s-4pT--4" target="rAzi4bnjLAUo05s-4pT--9">
          <mxGeometry relative="1" as="geometry">
            <Array as="points">
              <mxPoint x="457" y="525" />
            </Array>
          </mxGeometry>
        </mxCell>
        <mxCell id="rAzi4bnjLAUo05s-4pT--21" value="true" style="edgeLabel;html=1;align=center;verticalAlign=middle;resizable=0;points=[];fontSize=15;" vertex="1" connectable="0" parent="rAzi4bnjLAUo05s-4pT--20">
          <mxGeometry x="0.1592" y="3" relative="1" as="geometry">
            <mxPoint as="offset" />
          </mxGeometry>
        </mxCell>
        <mxCell id="rAzi4bnjLAUo05s-4pT--22" style="edgeStyle=orthogonalEdgeStyle;rounded=0;orthogonalLoop=1;jettySize=auto;html=1;endArrow=block;endFill=0;fontSize=14;entryX=0.452;entryY=0.043;entryDx=0;entryDy=0;entryPerimeter=0;" edge="1" parent="1" source="rAzi4bnjLAUo05s-4pT--4" target="rAzi4bnjLAUo05s-4pT--10">
          <mxGeometry relative="1" as="geometry">
            <mxPoint x="87" y="670" as="targetPoint" />
            <Array as="points">
              <mxPoint x="258" y="520" />
              <mxPoint x="258" y="520" />
            </Array>
          </mxGeometry>
        </mxCell>
        <mxCell id="rAzi4bnjLAUo05s-4pT--23" value="false" style="edgeLabel;html=1;align=center;verticalAlign=middle;resizable=0;points=[];fontSize=15;" vertex="1" connectable="0" parent="rAzi4bnjLAUo05s-4pT--22">
          <mxGeometry x="-0.0475" y="2" relative="1" as="geometry">
            <mxPoint as="offset" />
          </mxGeometry>
        </mxCell>
        <mxCell id="rAzi4bnjLAUo05s-4pT--26" style="edgeStyle=orthogonalEdgeStyle;rounded=0;orthogonalLoop=1;jettySize=auto;html=1;entryX=0.5;entryY=0;entryDx=0;entryDy=0;endArrow=block;endFill=0;fontSize=14;exitX=0.5;exitY=1;exitDx=0;exitDy=0;" edge="1" parent="1" source="rAzi4bnjLAUo05s-4pT--9" target="rAzi4bnjLAUo05s-4pT--14">
          <mxGeometry relative="1" as="geometry">
            <mxPoint x="500" y="650" as="sourcePoint" />
            <Array as="points">
              <mxPoint x="500" y="660" />
              <mxPoint x="500" y="660" />
            </Array>
          </mxGeometry>
        </mxCell>
        <mxCell id="rAzi4bnjLAUo05s-4pT--27" value="true" style="edgeLabel;html=1;align=center;verticalAlign=middle;resizable=0;points=[];fontSize=15;" vertex="1" connectable="0" parent="rAzi4bnjLAUo05s-4pT--26">
          <mxGeometry x="0.0897" y="3" relative="1" as="geometry">
            <mxPoint as="offset" />
          </mxGeometry>
        </mxCell>
        <mxCell id="rAzi4bnjLAUo05s-4pT--28" value="Start" style="rounded=1;whiteSpace=wrap;html=1;fontSize=12;glass=0;strokeWidth=1;shadow=0;" vertex="1" parent="1">
          <mxGeometry x="285" y="340" width="120" height="40" as="geometry" />
        </mxCell>
        <mxCell id="rAzi4bnjLAUo05s-4pT--29" value="return num" style="rounded=1;whiteSpace=wrap;html=1;fontSize=12;glass=0;strokeWidth=1;shadow=0;" vertex="1" parent="1">
          <mxGeometry x="311.25" y="880" width="120" height="40" as="geometry" />
        </mxCell>
        <mxCell id="rAzi4bnjLAUo05s-4pT--30" style="edgeStyle=orthogonalEdgeStyle;rounded=0;orthogonalLoop=1;jettySize=auto;html=1;entryX=0.5;entryY=0;entryDx=0;entryDy=0;" edge="1" parent="1" source="rAzi4bnjLAUo05s-4pT--28" target="rAzi4bnjLAUo05s-4pT--2">
          <mxGeometry relative="1" as="geometry">
            <mxPoint x="370" y="835" as="sourcePoint" />
            <mxPoint x="370" y="885" as="targetPoint" />
          </mxGeometry>
        </mxCell>
        <mxCell id="rAzi4bnjLAUo05s-4pT--31" style="edgeStyle=orthogonalEdgeStyle;rounded=0;orthogonalLoop=1;jettySize=auto;html=1;entryX=0.5;entryY=0;entryDx=0;entryDy=0;exitX=0;exitY=0.5;exitDx=0;exitDy=0;" edge="1" parent="1" source="rAzi4bnjLAUo05s-4pT--14" target="rAzi4bnjLAUo05s-4pT--29">
          <mxGeometry relative="1" as="geometry">
            <mxPoint x="355" y="140" as="sourcePoint" />
            <mxPoint x="355" y="180" as="targetPoint" />
            <Array as="points">
              <mxPoint x="371" y="820" />
            </Array>
          </mxGeometry>
        </mxCell>
        <mxCell id="rAzi4bnjLAUo05s-4pT--32" style="edgeStyle=orthogonalEdgeStyle;rounded=0;orthogonalLoop=1;jettySize=auto;html=1;entryX=1;entryY=0.5;entryDx=0;entryDy=0;exitX=0;exitY=0.5;exitDx=0;exitDy=0;" edge="1" parent="1" source="rAzi4bnjLAUo05s-4pT--29" target="rAzi4bnjLAUo05s-4pT--7">
          <mxGeometry relative="1" as="geometry">
            <mxPoint x="460" y="840" as="sourcePoint" />
            <mxPoint x="381" y="890" as="targetPoint" />
          </mxGeometry>
        </mxCell>
        <mxCell id="rAzi4bnjLAUo05s-4pT--34" style="edgeStyle=orthogonalEdgeStyle;rounded=0;orthogonalLoop=1;jettySize=auto;html=1;exitX=0;exitY=0.5;exitDx=0;exitDy=0;entryX=0.075;entryY=0.007;entryDx=0;entryDy=0;entryPerimeter=0;" edge="1" parent="1" source="rAzi4bnjLAUo05s-4pT--10" target="rAzi4bnjLAUo05s-4pT--7">
          <mxGeometry relative="1" as="geometry">
            <mxPoint x="220" y="760" as="sourcePoint" />
            <mxPoint x="80" y="940" as="targetPoint" />
            <Array as="points">
              <mxPoint x="89" y="650" />
            </Array>
          </mxGeometry>
        </mxCell>
        <mxCell id="rAzi4bnjLAUo05s-4pT--35" value="" style="edgeStyle=orthogonalEdgeStyle;rounded=0;orthogonalLoop=1;jettySize=auto;html=1;" edge="1" parent="1" source="rAzi4bnjLAUo05s-4pT--11" target="rAzi4bnjLAUo05s-4pT--7">
          <mxGeometry relative="1" as="geometry">
            <mxPoint x="210" y="750" as="sourcePoint" />
            <mxPoint x="140" y="940" as="targetPoint" />
            <Array as="points" />
          </mxGeometry>
        </mxCell>
        <mxCell id="rAzi4bnjLAUo05s-4pT--7" value="End" style="rounded=1;whiteSpace=wrap;html=1;fontSize=12;glass=0;strokeWidth=1;shadow=0;" vertex="1" parent="1">
          <mxGeometry x="80" y="880" width="120" height="40" as="geometry" />
        </mxCell>
        <mxCell id="rAzi4bnjLAUo05s-4pT--40" style="edgeStyle=orthogonalEdgeStyle;rounded=0;orthogonalLoop=1;jettySize=auto;html=1;entryX=0.842;entryY=-0.057;entryDx=0;entryDy=0;entryPerimeter=0;" edge="1" parent="1" source="rAzi4bnjLAUo05s-4pT--9" target="rAzi4bnjLAUo05s-4pT--11">
          <mxGeometry relative="1" as="geometry">
            <Array as="points">
              <mxPoint x="410" y="615" />
              <mxPoint x="410" y="685" />
              <mxPoint x="412" y="685" />
            </Array>
          </mxGeometry>
        </mxCell>
        <mxCell id="rAzi4bnjLAUo05s-4pT--41" value="false" style="edgeLabel;html=1;align=center;verticalAlign=middle;resizable=0;points=[];fontSize=15;" vertex="1" connectable="0" parent="rAzi4bnjLAUo05s-4pT--40">
          <mxGeometry x="0.0295" y="-4" relative="1" as="geometry">
            <mxPoint as="offset" />
          </mxGeometry>
        </mxCell>
      </root>
    </mxGraphModel>
  </diagram>
</mxfile>
